<?xml version="1.0" standalone="no"?><!DOCTYPE svg PUBLIC "-//W3C//DTD SVG 1.1//EN" "http://www.w3.org/Graphics/SVG/1.1/DTD/svg11.dtd"><svg t="1768878758116" class="icon" viewBox="0 0 1024 1024" version="1.1" xmlns="http://www.w3.org/2000/svg" p-id="5716" xmlns:xlink="http://www.w3.org/1999/xlink" width="200" height="200"><path d="M665.6 0c102.4 0 153.6 0 211.2 19.2 57.6 19.2 108.8 70.4 128 128 19.2 57.6 19.2 108.8 19.2 211.2v307.2c0 102.4 0 153.6-19.2 211.2-19.2 57.6-70.4 108.8-128 128-57.6 19.2-108.8 19.2-211.2 19.2H358.4c-102.4 0-153.6 0-211.2-19.2-64-25.6-108.8-70.4-128-128C0 819.2 0 768 0 665.6V358.4C0 256 0 204.8 19.2 147.2c25.6-57.6 70.4-108.8 128-128C204.8 0 256 0 358.4 0h307.2z" fill="#1E51EE" p-id="5717"></path><path d="M230.4 723.2c0-6.4 6.4-6.4 0 0 12.8-6.4 25.6-6.4 32-6.4 25.6 0 44.8 6.4 64 25.6v6.4l-44.8 76.8c-6.4 12.8-25.6 25.6-44.8 25.6-12.8 0-19.2-6.4-32-12.8-19.2-12.8-25.6-44.8-12.8-64l38.4-51.2z m608-121.6c25.6 0 51.2 19.2 51.2 44.8 0 32-19.2 57.6-51.2 57.6h-57.6l44.8 76.8c12.8 19.2 6.4 51.2-12.8 64-6.4 6.4-19.2 12.8-32 12.8-19.2 0-32-6.4-44.8-25.6l-102.4-192-83.2-147.2v-6.4-19.2c0-38.4 6.4-76.8 25.6-108.8 0-6.4 6.4-6.4 12.8 0l140.8 236.8 108.8 6.4zM576 601.6c25.6 12.8 38.4 44.8 38.4 76.8v19.2H185.6c-25.6 0-51.2-25.6-51.2-57.6 0-25.6 25.6-44.8 51.2-44.8h115.2l153.6-262.4-38.4-70.4c-19.2-25.6-6.4-57.6 19.2-70.4 25.6-12.8 51.2 0 64 19.2l12.8 25.6 12.8-25.6c19.2-19.2 51.2-32 76.8-12.8 19.2 12.8 25.6 44.8 12.8 64L416 601.6H576z" fill="#FFFFFF" p-id="5718"></path></svg>