<?xml version="1.0" standalone="no"?><!DOCTYPE svg PUBLIC "-//W3C//DTD SVG 1.1//EN" "http://www.w3.org/Graphics/SVG/1.1/DTD/svg11.dtd"><svg t="1768628568663" class="icon" viewBox="0 0 3096 1024" version="1.1" xmlns="http://www.w3.org/2000/svg" p-id="15399" xmlns:xlink="http://www.w3.org/1999/xlink" width="604.6875" height="200"><path d="M479.515 285.47c-2.129 17.962-5.279 33.114-5.462 48.314-0.462 38.212 15.425 67.519 50.656 84.631 16.937 8.225 35.399 13.996 50.835 24.351 8.975 6.030 15.615 18.284 18.737 29.055 1.445 4.974-6.711 16.881-12.822 19.026-11.442 3.997-22.22-0.803-24.878-14.974-1.525-8.105-2.47-16.326-3.838-25.563h-81.248c-13.518 49.796 11.265 93.017 60.56 100.273 25.84 3.805 53.126 2.781 79.117-0.758 33.136-4.516 59.926-21.878 67.705-56.914 9.123-41.165 3.886-80.413-31.823-108.042-15.655-12.112-35.601-18.659-53.488-27.932-10.466-5.426-23.075-9.205-30.307-17.566-5.447-6.291-6.15-19.131-4.314-28.094 0.75-3.645 15.225-8.322 20.931-6.083 6.378 2.509 13.837 12.288 13.887 18.961 0.141 17.341 7.843 21.733 23.232 20.807 13.934-0.841 27.967-0.597 41.936-0.15 12.73 0.402 16.506-5.425 16.95-17.706 1.764-48.859-17.29-72.529-65.955-79.793-10.861-1.617-21.829-2.565-38.964-4.547 32.694-13.146 60.041-24.54 87.69-35.188 230.361-88.749 467.417-154.641 709.73-200.246 147.961-27.852 296.918-51.82 446.323-70.271 208.989-25.821 419.216-35.289 629.745-21.825 122.706 7.851 245.245 20.839 361.678 63.154 44.699 16.238 89.031 38.131 127.554 65.782 68.089 48.897 80.15 118.823 35.011 189.622-21.113 33.104-48.334 63.492-77.329 90.166-78.851 72.521-172.284 123.092-268.412 171.045v-120.683c-29.783 0-57.67-0.546-85.5 0.546-4.489 0.178-12.701 8.050-12.295 11.577 1.347 11.779-9.262 27.131 8.206 34.887 2.959 1.318 6.522 1.298 11.446 2.188 0 13.989-0.037 27.132 0.003 40.278 0.048 13.191-5.722 22.055-19.494 21.997-13.721-0.053-19.612-9.349-19.932-22.113-0.412-16.066-0.205-32.149-0.231-48.231-0.053-31.458-0.422-62.926 0.051-94.378 0.182-12.062 1.81-24.657 18.002-26.019 12.119-1.021 20.718 3.379 21.476 16.877 0.423 7.595 0.066 15.226 0.066 25.935 24.358 0 47.243 0.906 69.907-0.853 3.963-0.307 10.208-11.895 10.047-18.13-1.299-50.427-32.87-82.582-83.893-87.050-70.87-6.207-111.972 25.219-117.463 96.154-3.749 48.486-2.27 97.677 0.707 146.319 2.531 41.402 24.314 61.559 65.668 69.731 3.283 0.649 6.458 1.84 15.306 4.417-19.19 7.934-33.537 14.026-47.999 19.813-257.405 102.884-523.681 175.091-795.882 224.942-134.403 24.62-269.711 45.617-405.371 61.679-200.034 23.683-401.124 33.844-602.58 21.911-131.131-7.775-262.005-20.655-386.48-66.285-40.844-14.967-81.489-34.444-116.925-59.386-74.39-52.362-85.748-124.337-37.076-201.214 30.775-48.605 73.101-86.138 118.43-120.474 73.271-55.485 153.415-99.468 235.926-139.363 3.682-1.792 7.69-2.886 12.42-4.609l0.007-0.006zM1304.664 357.824c1.184 0.432 2.373 0.866 3.557 1.299 0 41.212-0.733 82.437 0.159 123.631 1.607 74.384-13.77 58.289 64.041 60.56 13.294 0.394 16.585-5.605 16.292-17.693-2.046-85.9-3.85-171.806-5.3-257.719-0.226-13.468-5.539-18.402-18.905-18.154-31.434 0.597-62.891 0.713-94.313-0.061-14.829-0.372-20.276 4.996-22.678 19.901-6.628 41.065-15.429 81.787-24.541 128.73l-23.498-146.058h-135.666c0 81.902 0.097 161.458-0.035 241.014-0.080 50.159-0.207 49.249 50.252 50.368 20.067 0.451 26.87-5.566 26.468-25.807-1.085-55.363-0.371-110.759-0.371-166.139 14.673 46.573 24.452 93.532 34.841 140.357 11.385 51.305 11.67 50.025 64.261 51.729 21.568 0.698 28.617-7.319 32.309-26.925 10.034-53.195 21.936-106.049 33.092-159.046l0.025 0.001zM2248.111 404.175c-1.291 0.357-2.572 0.707-3.867 1.063-2.797-6.19-5.697-12.327-8.369-18.572-17.571-41.014-34.911-82.14-52.86-122.997-2.556-5.823-7.781-14.673-12.071-14.85-30.318-1.294-60.713-0.688-90.756-0.688v290.706h75.805v-156.63c6.319 4.773 9.167 10.048 11.664 15.492 19.514 42.451 38.777 85.010 58.659 127.285 2.673 5.691 8.177 14.002 12.703 14.211 28.246 1.31 56.582 0.66 85.044 0.66v-290.19h-75.933c-0.001 52.758-0.001 103.632-0.001 154.502l-0.007 0.001zM1851.503 247.773c-21.771 0-41.227 1.23-60.465-0.336-19.657-1.604-26.698 4.235-26.219 25.077 1.365 59.385 0.339 118.823 0.513 178.233 0.172 61.866 29.89 95.418 91.218 100.454 64.994 5.34 127.191-18.161 123.849-110.996-2.009-55.853-0.327-111.828-0.419-167.744-0.004-7.462-0.669-14.928-1.044-22.708h-83.764c0 10.25 0.003 18.53 0 26.814-0.054 62.214-0.164 124.42-0.127 186.639 0.003 12.839-1.305 23.471-18.028 24.917-17.259 1.489-24.693-5.747-24.771-22.393-0.183-44.725-0.535-89.457-0.722-134.181-0.109-27.052-0.007-54.114-0.007-83.769v-0.001zM1597.82 339.833c22.761 0 43.695 0.724 64.518-0.545 4.79-0.287 12.753-7.042 13.177-11.404 3.823-39.191-6.957-76.186-53.472-82.791-29.9-4.235-61.383-3.298-91.318 1.052-15.366 2.234-33.126 13.95-42.501 26.739-30.135 41.086-14.235 110.578 29.457 136.435 16.711 9.901 35.711 15.89 52.713 25.381 9.333 5.21 19.714 12.528 24.122 21.573 5.426 11.143 5.245 26.231-11.122 30.518-12.687 3.322-26.814-1.305-25.94-16.196 1.537-26.269-12.465-27.623-32.039-26.137-14.598 1.114-29.44-0.705-43.965 0.816-4.934 0.522-12.317 6.628-13.281 11.283-7.69 37.089 15.686 76.5 52.803 86.625 37.085 10.127 74.754 9.046 111.335-3.62 29.165-10.102 45.263-31.893 49.62-61.986 7.883-54.475-14.274-93.68-64.991-115.987-11.492-5.056-23.451-9.072-34.813-14.37-6.875-3.197-15.62-6.503-18.863-12.349-4.31-7.747-6.718-18.678-4.681-26.945 1.041-4.234 14.637-9.217 20.564-7.395 6.766 2.082 12.547 10.691 16.388 17.753 2.714 5.006 1.489 12.137 2.299 21.536l-0.001 0.007zM980.366 542.225c0.608-3.396 1.555-5.503 1.239-7.407-15.347-90.631-30.59-181.284-46.866-271.757-0.797-4.427-10.533-10.124-16.269-10.295-32.083-1.003-64.249 0.406-96.32-0.878-15.712-0.634-20.193 6.030-22.448 19.861-8.979 54.975-18.947 109.803-28.316 164.722-5.93 34.727-11.469 69.531-17.627 106.99 26.217 0 49.827 0.692 73.324-0.642 4.169-0.237 10.347-8.414 11.346-13.724 4-21.193 6.211-42.716 9.3-64.093 5.91-40.893 11.956-81.772 17.937-122.647 1.287 0.001 2.567 0.004 3.858 0.007 10.374 66.766 20.74 133.532 31.043 199.865l79.805-0.004z" fill="#13227A" p-id="15400"></path></svg>