<?xml version="1.0" standalone="no"?><!DOCTYPE svg PUBLIC "-//W3C//DTD SVG 1.1//EN" "http://www.w3.org/Graphics/SVG/1.1/DTD/svg11.dtd"><svg t="1768816473496" class="icon" viewBox="0 0 1024 1024" version="1.1" xmlns="http://www.w3.org/2000/svg" p-id="4096" xmlns:xlink="http://www.w3.org/1999/xlink" width="200" height="200"><path d="M1009.226469 261.730306c-13.584397-79.926661-28.886315-161.577832-47.618283-239.918781-5.142579-20.446494-30.602838-23.868556-47.613291-15.299922-66.352249 47.614289-136.120569 91.807516-207.488581 132.690519-34.0249 18.725977 0 68.060784 35.74342 49.327817 51.04434-28.887314 85.077228-54.464404 122.530181-85.067243-59.489153 149.702969-79.931653 314.71185-197.319255 435.532498-23.871552 23.866559-52.760863 47.613291-85.077228 64.631732 0-1.717522 1.714526-1.717522 1.714526-1.717521h-1.714526c10.161337-32.317364 17.015446-68.059785 18.73097-100.370159 11.872867-244.944529-210.912639-445.695831-430.394912-265.389026-197.568895 163.418177 23.626905 461.118575 229.39397 476.419495a205.539393 205.539393 0 0 0 45.910747 0v1.714525h3.424059c-95.232573 136.120569-243.232 241.514479-408.239882 248.369587-39.16648 3.424059-34.026897 64.629735 5.140581 61.204677 185.330556-10.160338 396.367016-149.588134 495.02964-328.305234 1.709533 0 1.709533-1.71153 3.424059-1.71153 3.427055-1.715524 3.427055-3.431049 3.427054-5.138584 68.058787-25.463255 130.979987-73.202364 180.308803-125.840404C842.503062 433.594295 862.943565 270.304932 925.863767 117.16692c10.161337 51.047335 11.876861 90.218808 22.158025 151.422488 5.020755 37.455949 66.225432 32.318362 61.204677-6.859102zM502.206133 629.206014c-1.716523 1.715524-3.432047 5.140582-5.14158 10.161336l-5.138585 1.715525-3.432047 3.424059c-37.458944 10.163334-79.931653 10.163334-119.103126 3.427054-125.714586-27.170791-249.961289-153.133019-212.502345-278.974421 28.887314-98.653636 113.962544-154.847545 207.480591-141.132337 76.505597 10.161337 110.539484 54.47439 142.856848 122.526187 44.310058 91.806517 40.885 188.755613-5.019756 278.852597z m0 0" fill="#515151" p-id="4097"></path></svg>