<?xml version="1.0" standalone="no"?><!DOCTYPE svg PUBLIC "-//W3C//DTD SVG 1.1//EN" "http://www.w3.org/Graphics/SVG/1.1/DTD/svg11.dtd"><svg t="1768622126197" class="icon" viewBox="0 0 1536 1024" version="1.1" xmlns="http://www.w3.org/2000/svg" p-id="5763" xmlns:xlink="http://www.w3.org/1999/xlink" width="300" height="200"><path d="M1199.58106232 859.61428833h-146.69322968a7.75447228 7.75447228 0 0 1-7.70099331-7.80795191V172.24714256A7.78121209 7.78121209 0 0 1 1052.88783264 164.38571167h146.69322968a7.51381659 7.51381659 0 0 1 5.34791207 2.29960227 8.02186845 8.02186845 0 0 1 2.24612331 5.56182862v679.55919385a7.72773312 7.72773312 0 0 1-7.59403539 7.80795192z m-282.6906352-7.78121209z m-7.64751435 7.78121209h-144.58080412a7.72773312 7.72773312 0 0 1-7.64751435-7.83469105V420.47048424a108.66957449 108.66957449 0 0 0-107.30585716-109.97981353H334.18192195a7.75447228 7.75447228 0 0 0-7.67425417 7.83469172v533.48097399a7.72773312 7.72773312 0 0 1-7.67425416 7.80795191H172.05996584A7.72773312 7.72773312 0 0 1 164.38571167 851.83307624V172.16692376A7.75447228 7.75447228 0 0 1 172.05996584 164.38571167h549.39101245a197.87274884 197.87274884 0 0 1 195.43944884 200.54670454v487.0610976a7.72773312 7.72773312 0 0 1-7.64751435 7.62077452zM466.19513274 435.15050246h146.71996881a7.54055641 7.54055641 0 0 1 5.34791274 2.29960227 8.02186845 8.02186845 0 0 1 2.2193835 5.5618286v408.79440309a8.02186845 8.02186845 0 0 1-2.2193835 5.53508946 7.40685799 7.40685799 0 0 1-5.34791275 2.27286245h-146.71996881a7.72773312 7.72773312 0 0 1-7.67425416-7.80795192V443.01193333a7.78121209 7.78121209 0 0 1 7.67425417-7.86143088z" fill="#FF6700" p-id="5764"></path></svg>