<?xml version="1.0" standalone="no"?><!DOCTYPE svg PUBLIC "-//W3C//DTD SVG 1.1//EN" "http://www.w3.org/Graphics/SVG/1.1/DTD/svg11.dtd"><svg t="1768622240638" class="icon" viewBox="0 0 1024 1024" version="1.1" xmlns="http://www.w3.org/2000/svg" p-id="12189" xmlns:xlink="http://www.w3.org/1999/xlink" width="200" height="200"><path d="M0.205733 512.005274A510.868338 510.868338 0 1 0 511.074071 0.932138 510.868338 510.868338 0 0 0 0.205733 512.005274z m0 0" fill="#FFFFFF" p-id="12190"></path><path d="M257.892679 446.009153L111.666985 192.878961a510.561141 510.561141 0 0 1 839.005758 57.548207h-416.763707a190.666836 190.666836 0 0 0-22.834965-0.921591 263.728484 263.728484 0 0 0-253.181392 196.503576z m0 0" fill="#DD4E41" p-id="12191"></path><path d="M693.856188 324.461605h293.372979a504.519603 504.519603 0 0 1 34.713242 186.41728 510.612341 510.612341 0 0 1-505.236396 510.919538l209.303444-361.929072a260.861313 260.861313 0 0 0-31.99967-335.407746z m0 0" fill="#FFCD41" p-id="12192"></path><path d="M325.527182 512.005274a185.546889 185.546889 0 1 1 185.546889 185.342091A185.649288 185.649288 0 0 1 325.527182 512.005274z m0 0" fill="#4C8BF5" p-id="12193"></path><path d="M581.422147 764.060277l-146.225694 254.102983a511.994726 511.994726 0 0 1-435.195518-505.389994 504.110008 504.110008 0 0 1 66.149719-250.467821l208.381853 360.085892A263.011691 263.011691 0 0 0 511.074071 773.122584a303.356875 303.356875 0 0 0 70.399275-9.113506z m0 0" fill="#1DA362" p-id="12194"></path></svg>