<?xml version="1.0" standalone="no"?><!DOCTYPE svg PUBLIC "-//W3C//DTD SVG 1.1//EN" "http://www.w3.org/Graphics/SVG/1.1/DTD/svg11.dtd"><svg t="1768877921017" class="icon" viewBox="0 0 1024 1024" version="1.1" xmlns="http://www.w3.org/2000/svg" p-id="3907" xmlns:xlink="http://www.w3.org/1999/xlink" width="200" height="200"><path d="M106.666667 57.173333a72.746667 72.746667 0 0 0-16.853334 51.2v807.253334a72.746667 72.746667 0 0 0 16.853334 51.2l2.773333 2.56 452.906667-452.053334v-10.666666L110.293333 54.613333z" fill="#00D7FF" p-id="3908"></path><path d="M713.173333 668.16l-150.826666-150.826667v-10.666666l150.826666-150.826667 3.413334 1.92L896 459.306667c50.986667 29.013333 50.986667 76.373333 0 105.386666l-178.56 101.546667z" fill="#FFDC00" p-id="3909"></path><path d="M716.586667 666.24L562.346667 512 106.666667 966.826667c16.853333 17.706667 44.586667 20.053333 75.946666 2.133333l533.333334-302.72" fill="#FF003F" p-id="3910"></path><path d="M716.586667 357.76L183.466667 55.04c-31.36-17.92-59.093333-15.573333-75.946667 2.133333L562.346667 512z" fill="#00F665" p-id="3911"></path></svg>